{"title":"Kajarya (2015) 720p Webrip x264 AAC 5.1 MSubs -DDR","uid":15788675,"size":1913259983,"categoryP":"video","categoryS":"hd___movies","magnet":"?xt=urn:btih:2cc4800e5e8dbf1bc750ea144ffa27299a6eeb9d&amp;dn=Kajarya+%282015%29+720p+Webrip+x264+AAC+5.1+MSubs+-DDR&amp;tr=udp%3A%2F%2Ftracker.leechers-paradise.org%3A6969&amp;tr=udp%3A%2F%2Fzer0day.ch%3A1337&amp;tr=udp%3A%2F%2Fopen.demonii.com%3A1337&amp;tr=udp%3A%2F%2Ftracker.coppersurfer.tk%3A6969&amp;tr=udp%3A%2F%2Fexodus.desync.com%3A6969","seeders":14,"leechers":14,"uploader":"SaM","files":3,"time":1473361090,"description":"Kajarya\r\n\r\n720p Web Rip x264\r\n\r\nHindi AAC 5.1 Audio\r\n\r\n\r\n\r\nEnglish &amp; French Subtitles\r\n\r\nSynopsis:\r\nSet in the present times against two backdrops. New Delhi with its shining buildings and apparent cosmopolitan veneer, thinly veils an underbelly of crimes against women and corruption at all levels. And a small village just 80 kilometers from New Delhi that is stuck in a time warp. Kajarya a woman in her early thirties has a strange but important place in the village social structure; she murders unwanted girl infants in the garb of religion. Meera is a rookie reporter. She breezes into the village and the villagers feed her the story of Kajarya being a demonic baby killer. The story is juicy and one sided. Meera gets the front page of the newspaper. Kajarya goes to jail.\r\n\r\n \nhttp://extraimago.com/image/wmCj \nhttp://extraimago.com/image/wmCT \nhttp://extraimago.com/image/wmCN \nhttp://extraimago.com/image/wmC2 \nhttp://extraimago.com/image/wmCw \nhttp://extraimago.com/image/wmCa \nhttp://extraimago.com/image/wmC8 \nhttp://extraimago.com/image/wmBf \nhttp://extraimago.com/image/wmBW \nhttp://extraimago.com/image/wmBA \nhttp://extraimago.com/image/wmBv \nhttp://extraimago.com/image/wmBu \nhttp://extraimago.com/image/wmBV\r\n\r\nSpecs:\r\nSource: Netflix Rip @ DDR\r\n\r\nFormat : Matroska\r\nFile size : 1.76 GiB\r\nDuration : 1 h 40 min\r\nOverall bit rate : 2 522 kb/s\r\nEncoded date : UTC 2016-09-08 01:52:29\r\nWriting application : mkvmerge v9.2.0 ('Photograph') 64bit\r\nWriting library : libebml v1.3.3 + libmatroska v1.4.4\r\n\r\nVideo\r\nID : 1\r\nFormat : AVC\r\nFormat/Info : Advanced Video Codec\r\nFormat profile :   \r\nFormat settings, CABAC : Yes\r\nFormat settings, ReFrames : 9 frames\r\nCodec ID : V_MPEG4/ISO/AVC\r\nDuration : 1 h 40 min\r\nBit rate : 2 360 kb/s\r\nWidth : 1 280 pixels\r\nHeight : 720 pixels\r\nDisplay aspect ratio : 16:9\r\nFrame rate mode : Constant\r\nFrame rate : 24.000 FPS\r\nColor space : YUV\r\nChroma subsampling : 4:2:0\r\nBit depth : 8 bits\r\nScan type : Progressive\r\nBits/(Pixel*Frame) : 0.107\r\nStream size : 1.65 GiB (94%)\r\nDefault : Yes\r\nForced : No\r\nColor range : Limited\r\nColor primaries : BT.709\r\nTransfer characteristics : BT.709\r\nMatrix coefficients : BT.709\r\n\r\nAudio\r\nID : 2\r\nFormat : AAC\r\nFormat/Info : Advanced Audio Codec\r\nFormat profile : LC\r\nCodec ID : A_AAC\r\nDuration : 1 h 40 min\r\nBit rate : 160 kb/s\r\nChannel(s) : 6 channels\r\nChannel positions : Front: L C R, Side: L R, LFE\r\nSampling rate : 48.0 kHz\r\nFrame rate : 46.875 FPS (1024 spf)\r\nCompression mode : Lossy\r\nDelay relative to video : 1 ms\r\nStream size : 114 MiB (6%)\r\nLanguage : Hindi\r\nDefault : Yes\r\nForced : No\r\n\r\nText #1\r\nID : 3\r\nFormat : UTF-8\r\nCodec ID : S_TEXT/UTF8\r\nCodec ID/Info : UTF-8 Plain Text\r\nDuration : 1 h 37 min\r\nBit rate : 49 b/s\r\nCount of elements : 1160\r\nStream size : 35.8 KiB (0%)\r\nLanguage : English\r\nDefault : Yes\r\nForced : No\r\n\r\nText #2\r\nID : 4\r\nFormat : UTF-8\r\nCodec ID : S_TEXT/UTF8\r\nCodec ID/Info : UTF-8 Plain Text\r\nDuration : 1 h 38 min\r\nBit rate : 51 b/s\r\nCount of elements : 1108\r\nStream size : 37.2 KiB (0%)\r\nLanguage : French\r\nDefault : No\r\nForced : No","torrent":{"xt":"urn:btih:2cc4800e5e8dbf1bc750ea144ffa27299a6eeb9d","amp;dn":"Kajarya+%282015%29+720p+Webrip+x264+AAC+5.1+MSubs+-DDR","amp;tr":["udp%3A%2F%2Ftracker.leechers-paradise.org%3A6969","udp%3A%2F%2Fzer0day.ch%3A1337","udp%3A%2F%2Fopen.demonii.com%3A1337","udp%3A%2F%2Ftracker.coppersurfer.tk%3A6969","udp%3A%2F%2Fexodus.desync.com%3A6969"],"infoHash":"2cc4800e5e8dbf1bc750ea144ffa27299a6eeb9d","infoHashBuffer":{"type":"Buffer","data":[44,196,128,14,94,141,191,27,199,80,234,20,79,250,39,41,154,110,235,157]},"announce":[],"urlList":[]}}